<?xml version="1.0" encoding="UTF-8" standalone="no"?>
<!DOCTYPE svg PUBLIC "-//W3C//DTD SVG 1.1//EN"
 "http://www.w3.org/Graphics/SVG/1.1/DTD/svg11.dtd">
<!-- Generated by graphviz version 2.43.0 (0)
 -->
<!-- Title: DependencyTree Pages: 1 -->
<svg width="2135pt" height="692pt"
 viewBox="0.00 0.00 2134.50 692.00" xmlns="http://www.w3.org/2000/svg" xmlns:xlink="http://www.w3.org/1999/xlink">
<g id="graph0" class="graph" transform="scale(1 1) rotate(0) translate(4 688)">
<title>DependencyTree</title>
<polygon fill="white" stroke="transparent" points="-4,4 -4,-688 2130.5,-688 2130.5,4 -4,4"/>
<!-- Defs -->
<g id="node1" class="node">
<title>Defs</title>
<polygon fill="none" stroke="black" points="790.5,-252 707.5,-252 707.5,-216 790.5,-216 790.5,-252"/>
<text text-anchor="middle" x="749" y="-230.3" font-family="Times,serif" font-size="14.00">Defs.lean</text>
</g>
<!-- Signal -->
<g id="node2" class="node">
<title>Signal</title>
<polygon fill="none" stroke="black" points="924,-180 828,-180 828,-144 924,-144 924,-180"/>
<text text-anchor="middle" x="876" y="-158.3" font-family="Times,serif" font-size="14.00">Signal.lean</text>
</g>
<!-- Defs&#45;&gt;Signal -->
<g id="edge48" class="edge">
<title>Defs&#45;&gt;Signal</title>
<path fill="none" stroke="black" d="M780.07,-215.88C796.83,-206.64 817.71,-195.13 835.7,-185.21"/>
<polygon fill="black" stroke="black" points="837.74,-188.08 844.81,-180.19 834.37,-181.95 837.74,-188.08"/>
</g>
<!-- ZTransformProperties -->
<g id="node4" class="node">
<title>ZTransformProperties</title>
<polygon fill="none" stroke="black" points="876,-108 666,-108 666,-72 876,-72 876,-108"/>
<text text-anchor="middle" x="771" y="-86.3" font-family="Times,serif" font-size="14.00">ZTransformProperties.lean</text>
</g>
<!-- Defs&#45;&gt;ZTransformProperties -->
<g id="edge61" class="edge">
<title>Defs&#45;&gt;ZTransformProperties</title>
<path fill="none" stroke="black" d="M751.65,-215.87C755.4,-191.67 762.29,-147.21 766.76,-118.39"/>
<polygon fill="black" stroke="black" points="770.26,-118.61 768.34,-108.19 763.35,-117.54 770.26,-118.61"/>
</g>
<!-- Signal&#45;&gt;ZTransformProperties -->
<g id="edge60" class="edge">
<title>Signal&#45;&gt;ZTransformProperties</title>
<path fill="none" stroke="black" d="M850.31,-143.88C836.71,-134.81 819.83,-123.55 805.14,-113.76"/>
<polygon fill="black" stroke="black" points="807.05,-110.82 796.78,-108.19 803.16,-116.65 807.05,-110.82"/>
</g>
<!-- ZTransform -->
<g id="node5" class="node">
<title>ZTransform</title>
<polygon fill="none" stroke="black" points="838.5,-36 703.5,-36 703.5,0 838.5,0 838.5,-36"/>
<text text-anchor="middle" x="771" y="-14.3" font-family="Times,serif" font-size="14.00">ZTransform.lean</text>
</g>
<!-- Signal&#45;&gt;ZTransform -->
<g id="edge49" class="edge">
<title>Signal&#45;&gt;ZTransform</title>
<path fill="none" stroke="black" d="M883.7,-143.79C890.96,-124.7 898.86,-93.73 885,-72 876.15,-58.13 862.64,-47.84 847.97,-40.21"/>
<polygon fill="black" stroke="black" points="849.25,-36.95 838.71,-35.8 846.24,-43.26 849.25,-36.95"/>
</g>
<!-- Tactic -->
<g id="node3" class="node">
<title>Tactic</title>
<polygon fill="none" stroke="black" points="1798.5,-468 1705.5,-468 1705.5,-432 1798.5,-432 1798.5,-468"/>
<text text-anchor="middle" x="1752" y="-446.3" font-family="Times,serif" font-size="14.00">Tactic.lean</text>
</g>
<!-- ZTransformProperties&#45;&gt;ZTransform -->
<g id="edge50" class="edge">
<title>ZTransformProperties&#45;&gt;ZTransform</title>
<path fill="none" stroke="black" d="M765.08,-71.7C764.29,-63.98 764.06,-54.71 764.4,-46.11"/>
<polygon fill="black" stroke="black" points="767.9,-46.32 765.1,-36.1 760.92,-45.84 767.9,-46.32"/>
</g>
<!-- ZTransformProperties&#45;&gt;ZTransform -->
<g id="edge62" class="edge">
<title>ZTransformProperties&#45;&gt;ZTransform</title>
<path fill="none" stroke="black" d="M776.92,-71.7C777.71,-63.98 777.94,-54.71 777.6,-46.11"/>
<polygon fill="black" stroke="black" points="781.08,-45.84 776.9,-36.1 774.1,-46.32 781.08,-45.84"/>
</g>
<!-- Lean -->
<g id="node6" class="node">
<title>Lean</title>
<polygon fill="none" stroke="black" points="1764,-684 1710,-684 1710,-648 1764,-648 1764,-684"/>
<text text-anchor="middle" x="1737" y="-662.3" font-family="Times,serif" font-size="14.00">Lean</text>
</g>
<!-- Lean&#45;&gt;Tactic -->
<g id="edge51" class="edge">
<title>Lean&#45;&gt;Tactic</title>
<path fill="none" stroke="black" d="M1740.29,-647.69C1744.68,-623.65 1752.23,-578.71 1755,-540 1756.14,-524.04 1755.45,-519.99 1755,-504 1754.76,-495.67 1754.32,-486.62 1753.85,-478.39"/>
<polygon fill="black" stroke="black" points="1757.33,-477.94 1753.22,-468.18 1750.34,-478.37 1757.33,-477.94"/>
</g>
<!-- Lean_Elab -->
<g id="node7" class="node">
<title>Lean_Elab</title>
<polygon fill="none" stroke="black" points="1734,-612 1646,-612 1646,-576 1734,-576 1734,-612"/>
<text text-anchor="middle" x="1690" y="-590.3" font-family="Times,serif" font-size="14.00">Lean.Elab</text>
</g>
<!-- Lean&#45;&gt;Lean_Elab -->
<g id="edge1" class="edge">
<title>Lean&#45;&gt;Lean_Elab</title>
<path fill="none" stroke="black" d="M1725.38,-647.7C1719.86,-639.47 1713.15,-629.48 1707.07,-620.42"/>
<polygon fill="black" stroke="black" points="1709.96,-618.46 1701.48,-612.1 1704.15,-622.36 1709.96,-618.46"/>
</g>
<!-- Lean_Elab_Tactic -->
<g id="node8" class="node">
<title>Lean_Elab_Tactic</title>
<polygon fill="none" stroke="black" points="1746,-540 1612,-540 1612,-504 1746,-504 1746,-540"/>
<text text-anchor="middle" x="1679" y="-518.3" font-family="Times,serif" font-size="14.00">Lean.Elab.Tactic</text>
</g>
<!-- Lean_Elab&#45;&gt;Lean_Elab_Tactic -->
<g id="edge2" class="edge">
<title>Lean_Elab&#45;&gt;Lean_Elab_Tactic</title>
<path fill="none" stroke="black" d="M1687.28,-575.7C1686.07,-567.98 1684.61,-558.71 1683.26,-550.11"/>
<polygon fill="black" stroke="black" points="1686.7,-549.44 1681.69,-540.1 1679.78,-550.53 1686.7,-549.44"/>
</g>
<!-- Lean_Elab_Tactic&#45;&gt;Tactic -->
<g id="edge52" class="edge">
<title>Lean_Elab_Tactic&#45;&gt;Tactic</title>
<path fill="none" stroke="black" d="M1697.04,-503.7C1706.06,-495.05 1717.12,-484.45 1726.94,-475.03"/>
<polygon fill="black" stroke="black" points="1729.37,-477.55 1734.16,-468.1 1724.52,-472.5 1729.37,-477.55"/>
</g>
<!-- Mathlib -->
<g id="node9" class="node">
<title>Mathlib</title>
<polygon fill="none" stroke="black" points="1244,-612 1172,-612 1172,-576 1244,-576 1244,-612"/>
<text text-anchor="middle" x="1208" y="-590.3" font-family="Times,serif" font-size="14.00">Mathlib</text>
</g>
<!-- Mathlib_Tactic -->
<g id="node10" class="node">
<title>Mathlib_Tactic</title>
<polygon fill="none" stroke="black" points="1559.5,-540 1440.5,-540 1440.5,-504 1559.5,-504 1559.5,-540"/>
<text text-anchor="middle" x="1500" y="-518.3" font-family="Times,serif" font-size="14.00">Mathlib.Tactic</text>
</g>
<!-- Mathlib&#45;&gt;Mathlib_Tactic -->
<g id="edge3" class="edge">
<title>Mathlib&#45;&gt;Mathlib_Tactic</title>
<path fill="none" stroke="black" d="M1244.05,-583.19C1290.44,-571.54 1371.79,-551.97 1430.39,-538.32"/>
<polygon fill="black" stroke="black" points="1431.37,-541.69 1440.32,-536.02 1429.79,-534.87 1431.37,-541.69"/>
</g>
<!-- Mathlib&#45;&gt;Mathlib_Tactic -->
<g id="edge19" class="edge">
<title>Mathlib&#45;&gt;Mathlib_Tactic</title>
<path fill="none" stroke="black" d="M1244.21,-585.38C1290.68,-574.82 1372.03,-555.45 1430.57,-541.08"/>
<polygon fill="black" stroke="black" points="1431.62,-544.43 1440.49,-538.64 1429.95,-537.63 1431.62,-544.43"/>
</g>
<!-- Mathlib_Algebra -->
<g id="node15" class="node">
<title>Mathlib_Algebra</title>
<polygon fill="none" stroke="black" points="352,-540 220,-540 220,-504 352,-504 352,-540"/>
<text text-anchor="middle" x="286" y="-518.3" font-family="Times,serif" font-size="14.00">Mathlib.Algebra</text>
</g>
<!-- Mathlib&#45;&gt;Mathlib_Algebra -->
<g id="edge7" class="edge">
<title>Mathlib&#45;&gt;Mathlib_Algebra</title>
<path fill="none" stroke="black" d="M1171.74,-590.69C1064.18,-583.79 737.57,-562.38 467,-540 432.66,-537.16 394.68,-533.65 362.43,-530.56"/>
<polygon fill="black" stroke="black" points="362.45,-527.04 352.16,-529.57 361.78,-534.01 362.45,-527.04"/>
</g>
<!-- Mathlib_Data -->
<g id="node18" class="node">
<title>Mathlib_Data</title>
<polygon fill="none" stroke="black" points="472,-468 362,-468 362,-432 472,-432 472,-468"/>
<text text-anchor="middle" x="417" y="-446.3" font-family="Times,serif" font-size="14.00">Mathlib.Data</text>
</g>
<!-- Mathlib&#45;&gt;Mathlib_Data -->
<g id="edge10" class="edge">
<title>Mathlib&#45;&gt;Mathlib_Data</title>
<path fill="none" stroke="black" d="M1171.79,-592.45C1051.64,-590.28 667.24,-580.26 551,-540 509.8,-525.73 469.02,-495.77 443.47,-474.56"/>
<polygon fill="black" stroke="black" points="445.62,-471.8 435.73,-468.01 441.1,-477.14 445.62,-471.8"/>
</g>
<!-- Mathlib_Topology -->
<g id="node28" class="node">
<title>Mathlib_Topology</title>
<polygon fill="none" stroke="black" points="1222,-540 1082,-540 1082,-504 1222,-504 1222,-540"/>
<text text-anchor="middle" x="1152" y="-518.3" font-family="Times,serif" font-size="14.00">Mathlib.Topology</text>
</g>
<!-- Mathlib&#45;&gt;Mathlib_Topology -->
<g id="edge21" class="edge">
<title>Mathlib&#45;&gt;Mathlib_Topology</title>
<path fill="none" stroke="black" d="M1194.16,-575.7C1187.51,-567.39 1179.42,-557.28 1172.11,-548.14"/>
<polygon fill="black" stroke="black" points="1174.66,-545.73 1165.68,-540.1 1169.2,-550.1 1174.66,-545.73"/>
</g>
<!-- Mathlib_Analysis -->
<g id="node37" class="node">
<title>Mathlib_Analysis</title>
<polygon fill="none" stroke="black" points="1687,-468 1551,-468 1551,-432 1687,-432 1687,-468"/>
<text text-anchor="middle" x="1619" y="-446.3" font-family="Times,serif" font-size="14.00">Mathlib.Analysis</text>
</g>
<!-- Mathlib&#45;&gt;Mathlib_Analysis -->
<g id="edge30" class="edge">
<title>Mathlib&#45;&gt;Mathlib_Analysis</title>
<path fill="none" stroke="black" d="M1244.05,-577.36C1287.96,-558.61 1364.64,-526.86 1432,-504 1468.06,-491.76 1508.67,-480.01 1542.81,-470.7"/>
<polygon fill="black" stroke="black" points="1543.99,-474.01 1552.72,-468.02 1542.15,-467.25 1543.99,-474.01"/>
</g>
<!-- Mathlib_Tactic&#45;&gt;Tactic -->
<g id="edge53" class="edge">
<title>Mathlib_Tactic&#45;&gt;Tactic</title>
<path fill="none" stroke="black" d="M1559.75,-505.35C1596.28,-495.67 1644.2,-482.75 1695.35,-468.14"/>
<polygon fill="black" stroke="black" points="1696.63,-471.42 1705.28,-465.3 1694.7,-464.69 1696.63,-471.42"/>
</g>
<!-- Mathlib_Tactic_Linarith -->
<g id="node27" class="node">
<title>Mathlib_Tactic_Linarith</title>
<polygon fill="none" stroke="black" points="1430,-396 1250,-396 1250,-360 1430,-360 1430,-396"/>
<text text-anchor="middle" x="1340" y="-374.3" font-family="Times,serif" font-size="14.00">Mathlib.Tactic.Linarith</text>
</g>
<!-- Mathlib_Tactic&#45;&gt;Mathlib_Tactic_Linarith -->
<g id="edge20" class="edge">
<title>Mathlib_Tactic&#45;&gt;Mathlib_Tactic_Linarith</title>
<path fill="none" stroke="black" d="M1506.63,-503.78C1512.87,-484.4 1519.2,-452.88 1504,-432 1494.55,-419.01 1464.16,-407.59 1432.08,-398.71"/>
<polygon fill="black" stroke="black" points="1432.65,-395.24 1422.08,-396.04 1430.84,-402 1432.65,-395.24"/>
</g>
<!-- Init_Data -->
<g id="node11" class="node">
<title>Init_Data</title>
<polygon fill="none" stroke="black" points="627,-468 547,-468 547,-432 627,-432 627,-468"/>
<text text-anchor="middle" x="587" y="-446.3" font-family="Times,serif" font-size="14.00">Init.Data</text>
</g>
<!-- Init_Data_Int -->
<g id="node12" class="node">
<title>Init_Data_Int</title>
<polygon fill="none" stroke="black" points="688,-396 584,-396 584,-360 688,-360 688,-396"/>
<text text-anchor="middle" x="636" y="-374.3" font-family="Times,serif" font-size="14.00">Init.Data.Int</text>
</g>
<!-- Init_Data&#45;&gt;Init_Data_Int -->
<g id="edge5" class="edge">
<title>Init_Data&#45;&gt;Init_Data_Int</title>
<path fill="none" stroke="black" d="M599.11,-431.7C604.87,-423.47 611.86,-413.48 618.21,-404.42"/>
<polygon fill="black" stroke="black" points="621.16,-406.3 624.03,-396.1 615.42,-402.29 621.16,-406.3"/>
</g>
<!-- Init_Data_Int_Basic -->
<g id="node13" class="node">
<title>Init_Data_Int_Basic</title>
<polygon fill="none" stroke="black" points="733.5,-324 586.5,-324 586.5,-288 733.5,-288 733.5,-324"/>
<text text-anchor="middle" x="660" y="-302.3" font-family="Times,serif" font-size="14.00">Init.Data.Int.Basic</text>
</g>
<!-- Init_Data_Int&#45;&gt;Init_Data_Int_Basic -->
<g id="edge6" class="edge">
<title>Init_Data_Int&#45;&gt;Init_Data_Int_Basic</title>
<path fill="none" stroke="black" d="M641.93,-359.7C644.61,-351.9 647.83,-342.51 650.8,-333.83"/>
<polygon fill="black" stroke="black" points="654.2,-334.7 654.14,-324.1 647.58,-332.43 654.2,-334.7"/>
</g>
<!-- Init_Data_Int_Basic&#45;&gt;Defs -->
<g id="edge38" class="edge">
<title>Init_Data_Int_Basic&#45;&gt;Defs</title>
<path fill="none" stroke="black" d="M682,-287.7C693.21,-278.88 707,-268.03 719.15,-258.47"/>
<polygon fill="black" stroke="black" points="721.56,-261.04 727.25,-252.1 717.23,-255.54 721.56,-261.04"/>
</g>
<!-- Init -->
<g id="node14" class="node">
<title>Init</title>
<polygon fill="none" stroke="black" points="614,-540 560,-540 560,-504 614,-504 614,-540"/>
<text text-anchor="middle" x="587" y="-518.3" font-family="Times,serif" font-size="14.00">Init</text>
</g>
<!-- Init&#45;&gt;Init_Data -->
<g id="edge4" class="edge">
<title>Init&#45;&gt;Init_Data</title>
<path fill="none" stroke="black" d="M587,-503.7C587,-495.98 587,-486.71 587,-478.11"/>
<polygon fill="black" stroke="black" points="590.5,-478.1 587,-468.1 583.5,-478.1 590.5,-478.1"/>
</g>
<!-- Mathlib_Algebra_Group -->
<g id="node16" class="node">
<title>Mathlib_Algebra_Group</title>
<polygon fill="none" stroke="black" points="324.5,-468 143.5,-468 143.5,-432 324.5,-432 324.5,-468"/>
<text text-anchor="middle" x="234" y="-446.3" font-family="Times,serif" font-size="14.00">Mathlib.Algebra.Group</text>
</g>
<!-- Mathlib_Algebra&#45;&gt;Mathlib_Algebra_Group -->
<g id="edge8" class="edge">
<title>Mathlib_Algebra&#45;&gt;Mathlib_Algebra_Group</title>
<path fill="none" stroke="black" d="M273.15,-503.7C266.97,-495.39 259.46,-485.28 252.68,-476.14"/>
<polygon fill="black" stroke="black" points="255.48,-474.04 246.71,-468.1 249.86,-478.22 255.48,-474.04"/>
</g>
<!-- Mathlib_Algebra_Group_Indicator -->
<g id="node17" class="node">
<title>Mathlib_Algebra_Group_Indicator</title>
<polygon fill="none" stroke="black" points="250,-180 0,-180 0,-144 250,-144 250,-180"/>
<text text-anchor="middle" x="125" y="-158.3" font-family="Times,serif" font-size="14.00">Mathlib.Algebra.Group.Indicator</text>
</g>
<!-- Mathlib_Algebra_Group&#45;&gt;Mathlib_Algebra_Group_Indicator -->
<g id="edge9" class="edge">
<title>Mathlib_Algebra_Group&#45;&gt;Mathlib_Algebra_Group_Indicator</title>
<path fill="none" stroke="black" d="M205.5,-431.94C192.71,-422.84 178.61,-410.52 170,-396 130.72,-329.72 124.82,-235.94 124.49,-190.21"/>
<polygon fill="black" stroke="black" points="127.99,-190.18 124.5,-180.17 120.99,-190.17 127.99,-190.18"/>
</g>
<!-- Mathlib_Algebra_Group_Indicator&#45;&gt;ZTransformProperties -->
<g id="edge54" class="edge">
<title>Mathlib_Algebra_Group_Indicator&#45;&gt;ZTransformProperties</title>
<path fill="none" stroke="black" d="M250.17,-145.03C253.14,-144.68 256.09,-144.34 259,-144 394.96,-128.34 551.49,-112.45 655.32,-102.21"/>
<polygon fill="black" stroke="black" points="655.9,-105.67 665.51,-101.2 655.22,-98.7 655.9,-105.67"/>
</g>
<!-- Mathlib_Data_Set -->
<g id="node19" class="node">
<title>Mathlib_Data_Set</title>
<polygon fill="none" stroke="black" points="540.5,-396 401.5,-396 401.5,-360 540.5,-360 540.5,-396"/>
<text text-anchor="middle" x="471" y="-374.3" font-family="Times,serif" font-size="14.00">Mathlib.Data.Set</text>
</g>
<!-- Mathlib_Data&#45;&gt;Mathlib_Data_Set -->
<g id="edge11" class="edge">
<title>Mathlib_Data&#45;&gt;Mathlib_Data_Set</title>
<path fill="none" stroke="black" d="M430.35,-431.7C436.76,-423.39 444.56,-413.28 451.61,-404.14"/>
<polygon fill="black" stroke="black" points="454.47,-406.16 457.81,-396.1 448.93,-401.88 454.47,-406.16"/>
</g>
<!-- Mathlib_Data_Real -->
<g id="node21" class="node">
<title>Mathlib_Data_Real</title>
<polygon fill="none" stroke="black" points="325,-396 179,-396 179,-360 325,-360 325,-396"/>
<text text-anchor="middle" x="252" y="-374.3" font-family="Times,serif" font-size="14.00">Mathlib.Data.Real</text>
</g>
<!-- Mathlib_Data&#45;&gt;Mathlib_Data_Real -->
<g id="edge13" class="edge">
<title>Mathlib_Data&#45;&gt;Mathlib_Data_Real</title>
<path fill="none" stroke="black" d="M376.64,-431.88C353.98,-422.26 325.53,-410.19 301.53,-400.01"/>
<polygon fill="black" stroke="black" points="302.81,-396.75 292.23,-396.07 300.07,-403.2 302.81,-396.75"/>
</g>
<!-- Mathlib_Data_Complex -->
<g id="node23" class="node">
<title>Mathlib_Data_Complex</title>
<polygon fill="none" stroke="black" points="367.5,-324 190.5,-324 190.5,-288 367.5,-288 367.5,-324"/>
<text text-anchor="middle" x="279" y="-302.3" font-family="Times,serif" font-size="14.00">Mathlib.Data.Complex</text>
</g>
<!-- Mathlib_Data&#45;&gt;Mathlib_Data_Complex -->
<g id="edge15" class="edge">
<title>Mathlib_Data&#45;&gt;Mathlib_Data_Complex</title>
<path fill="none" stroke="black" d="M401.36,-431.68C384.87,-413.56 358,-384.4 334,-360 324.7,-350.55 314.27,-340.39 305.02,-331.53"/>
<polygon fill="black" stroke="black" points="307.23,-328.79 297.57,-324.43 302.39,-333.86 307.23,-328.79"/>
</g>
<!-- Mathlib_Data_Set_Basic -->
<g id="node20" class="node">
<title>Mathlib_Data_Set_Basic</title>
<polygon fill="none" stroke="black" points="568,-324 386,-324 386,-288 568,-288 568,-324"/>
<text text-anchor="middle" x="477" y="-302.3" font-family="Times,serif" font-size="14.00">Mathlib.Data.Set.Basic</text>
</g>
<!-- Mathlib_Data_Set&#45;&gt;Mathlib_Data_Set_Basic -->
<g id="edge12" class="edge">
<title>Mathlib_Data_Set&#45;&gt;Mathlib_Data_Set_Basic</title>
<path fill="none" stroke="black" d="M472.48,-359.7C473.14,-351.98 473.94,-342.71 474.68,-334.11"/>
<polygon fill="black" stroke="black" points="478.17,-334.37 475.53,-324.1 471.19,-333.77 478.17,-334.37"/>
</g>
<!-- Mathlib_Data_Set_Basic&#45;&gt;Defs -->
<g id="edge39" class="edge">
<title>Mathlib_Data_Set_Basic&#45;&gt;Defs</title>
<path fill="none" stroke="black" d="M555.16,-287.99C595.15,-278.88 644.75,-266.95 697.47,-252.03"/>
<polygon fill="black" stroke="black" points="698.69,-255.32 707.34,-249.21 696.77,-248.59 698.69,-255.32"/>
</g>
<!-- Mathlib_Data_Real_Basic -->
<g id="node22" class="node">
<title>Mathlib_Data_Real_Basic</title>
<polygon fill="none" stroke="black" points="457.5,-180 268.5,-180 268.5,-144 457.5,-144 457.5,-180"/>
<text text-anchor="middle" x="363" y="-158.3" font-family="Times,serif" font-size="14.00">Mathlib.Data.Real.Basic</text>
</g>
<!-- Mathlib_Data_Real&#45;&gt;Mathlib_Data_Real_Basic -->
<g id="edge14" class="edge">
<title>Mathlib_Data_Real&#45;&gt;Mathlib_Data_Real_Basic</title>
<path fill="none" stroke="black" d="M216.83,-359.94C203.02,-351.25 188.65,-339.26 181,-324 158.72,-279.57 174,-250.26 210,-216 225.05,-201.68 244.16,-191.21 263.74,-183.56"/>
<polygon fill="black" stroke="black" points="265.18,-186.76 273.37,-180.03 262.77,-180.18 265.18,-186.76"/>
</g>
<!-- Mathlib_Data_Real_Basic&#45;&gt;ZTransformProperties -->
<g id="edge58" class="edge">
<title>Mathlib_Data_Real_Basic&#45;&gt;ZTransformProperties</title>
<path fill="none" stroke="black" d="M457.63,-144.76C518.63,-134.3 598.16,-120.65 661.83,-109.73"/>
<polygon fill="black" stroke="black" points="662.65,-113.14 671.91,-108 661.46,-106.24 662.65,-113.14"/>
</g>
<!-- Mathlib_Data_Complex_Basic -->
<g id="node24" class="node">
<title>Mathlib_Data_Complex_Basic</title>
<polygon fill="none" stroke="black" points="689,-252 469,-252 469,-216 689,-216 689,-252"/>
<text text-anchor="middle" x="579" y="-230.3" font-family="Times,serif" font-size="14.00">Mathlib.Data.Complex.Basic</text>
</g>
<!-- Mathlib_Data_Complex&#45;&gt;Mathlib_Data_Complex_Basic -->
<g id="edge16" class="edge">
<title>Mathlib_Data_Complex&#45;&gt;Mathlib_Data_Complex_Basic</title>
<path fill="none" stroke="black" d="M352,-287.97C395.55,-277.8 450.98,-264.87 496.16,-254.33"/>
<polygon fill="black" stroke="black" points="496.99,-257.73 505.93,-252.05 495.39,-250.91 496.99,-257.73"/>
</g>
<!-- Mathlib_Data_Complex_Exponential -->
<g id="node25" class="node">
<title>Mathlib_Data_Complex_Exponential</title>
<polygon fill="none" stroke="black" points="742.5,-180 475.5,-180 475.5,-144 742.5,-144 742.5,-180"/>
<text text-anchor="middle" x="609" y="-158.3" font-family="Times,serif" font-size="14.00">Mathlib.Data.Complex.Exponential</text>
</g>
<!-- Mathlib_Data_Complex&#45;&gt;Mathlib_Data_Complex_Exponential -->
<g id="edge17" class="edge">
<title>Mathlib_Data_Complex&#45;&gt;Mathlib_Data_Complex_Exponential</title>
<path fill="none" stroke="black" d="M254.31,-287.99C230.21,-269.35 199.88,-239.04 220,-216 224.19,-211.2 356.08,-193.94 465.13,-180.41"/>
<polygon fill="black" stroke="black" points="465.78,-183.85 475.27,-179.15 464.92,-176.91 465.78,-183.85"/>
</g>
<!-- Mathlib_Data_Complex_Norm -->
<g id="node26" class="node">
<title>Mathlib_Data_Complex_Norm</title>
<polygon fill="none" stroke="black" points="451,-252 229,-252 229,-216 451,-216 451,-252"/>
<text text-anchor="middle" x="340" y="-230.3" font-family="Times,serif" font-size="14.00">Mathlib.Data.Complex.Norm</text>
</g>
<!-- Mathlib_Data_Complex&#45;&gt;Mathlib_Data_Complex_Norm -->
<g id="edge18" class="edge">
<title>Mathlib_Data_Complex&#45;&gt;Mathlib_Data_Complex_Norm</title>
<path fill="none" stroke="black" d="M294.08,-287.7C301.39,-279.3 310.31,-269.07 318.34,-259.86"/>
<polygon fill="black" stroke="black" points="321.16,-261.94 325.09,-252.1 315.89,-257.34 321.16,-261.94"/>
</g>
<!-- Mathlib_Data_Complex_Basic&#45;&gt;Signal -->
<g id="edge44" class="edge">
<title>Mathlib_Data_Complex_Basic&#45;&gt;Signal</title>
<path fill="none" stroke="black" d="M651.27,-215.97C702.41,-203.91 770.09,-187.96 817.77,-176.72"/>
<polygon fill="black" stroke="black" points="818.7,-180.1 827.63,-174.4 817.09,-173.29 818.7,-180.1"/>
</g>
<!-- Mathlib_Data_Complex_Exponential&#45;&gt;ZTransformProperties -->
<g id="edge57" class="edge">
<title>Mathlib_Data_Complex_Exponential&#45;&gt;ZTransformProperties</title>
<path fill="none" stroke="black" d="M648.63,-143.88C670.78,-134.31 698.56,-122.3 722.06,-112.15"/>
<polygon fill="black" stroke="black" points="723.71,-115.25 731.5,-108.07 720.93,-108.82 723.71,-115.25"/>
</g>
<!-- Mathlib_Data_Complex_Norm&#45;&gt;Signal -->
<g id="edge45" class="edge">
<title>Mathlib_Data_Complex_Norm&#45;&gt;Signal</title>
<path fill="none" stroke="black" d="M451.13,-217.18C454.12,-216.78 457.08,-216.39 460,-216 589.63,-198.83 622.33,-196.88 752,-180 773.48,-177.2 797.03,-174.01 817.79,-171.15"/>
<polygon fill="black" stroke="black" points="818.31,-174.61 827.73,-169.77 817.35,-167.67 818.31,-174.61"/>
</g>
<!-- Mathlib_Tactic_Linarith&#45;&gt;Defs -->
<g id="edge40" class="edge">
<title>Mathlib_Tactic_Linarith&#45;&gt;Defs</title>
<path fill="none" stroke="black" d="M1306.63,-359.97C1264.69,-339.37 1189.94,-305.31 1122,-288 985.59,-253.25 942.57,-281.6 800.5,-251.79"/>
<polygon fill="black" stroke="black" points="801.06,-248.33 790.55,-249.64 799.58,-255.17 801.06,-248.33"/>
</g>
<!-- Mathlib_Topology_Basic -->
<g id="node29" class="node">
<title>Mathlib_Topology_Basic</title>
<polygon fill="none" stroke="black" points="1042.5,-468 861.5,-468 861.5,-432 1042.5,-432 1042.5,-468"/>
<text text-anchor="middle" x="952" y="-446.3" font-family="Times,serif" font-size="14.00">Mathlib.Topology.Basic</text>
</g>
<!-- Mathlib_Topology&#45;&gt;Mathlib_Topology_Basic -->
<g id="edge22" class="edge">
<title>Mathlib_Topology&#45;&gt;Mathlib_Topology_Basic</title>
<path fill="none" stroke="black" d="M1103.33,-503.97C1075.39,-494.19 1040.1,-481.84 1010.64,-471.52"/>
<polygon fill="black" stroke="black" points="1011.48,-468.11 1000.89,-468.11 1009.17,-474.72 1011.48,-468.11"/>
</g>
<!-- Mathlib_Topology_Filter -->
<g id="node30" class="node">
<title>Mathlib_Topology_Filter</title>
<polygon fill="none" stroke="black" points="1243,-468 1061,-468 1061,-432 1243,-432 1243,-468"/>
<text text-anchor="middle" x="1152" y="-446.3" font-family="Times,serif" font-size="14.00">Mathlib.Topology.Filter</text>
</g>
<!-- Mathlib_Topology&#45;&gt;Mathlib_Topology_Filter -->
<g id="edge23" class="edge">
<title>Mathlib_Topology&#45;&gt;Mathlib_Topology_Filter</title>
<path fill="none" stroke="black" d="M1152,-503.7C1152,-495.98 1152,-486.71 1152,-478.11"/>
<polygon fill="black" stroke="black" points="1155.5,-478.1 1152,-468.1 1148.5,-478.1 1155.5,-478.1"/>
</g>
<!-- Mathlib_Topology_MetricSpace -->
<g id="node31" class="node">
<title>Mathlib_Topology_MetricSpace</title>
<polygon fill="none" stroke="black" points="1494.5,-468 1261.5,-468 1261.5,-432 1494.5,-432 1494.5,-468"/>
<text text-anchor="middle" x="1378" y="-446.3" font-family="Times,serif" font-size="14.00">Mathlib.Topology.MetricSpace</text>
</g>
<!-- Mathlib_Topology&#45;&gt;Mathlib_Topology_MetricSpace -->
<g id="edge25" class="edge">
<title>Mathlib_Topology&#45;&gt;Mathlib_Topology_MetricSpace</title>
<path fill="none" stroke="black" d="M1207,-503.97C1238.99,-494.06 1279.48,-481.51 1313.04,-471.12"/>
<polygon fill="black" stroke="black" points="1314.24,-474.41 1322.76,-468.11 1312.17,-467.73 1314.24,-474.41"/>
</g>
<!-- Mathlib_Topology_Algebra -->
<g id="node33" class="node">
<title>Mathlib_Topology_Algebra</title>
<polygon fill="none" stroke="black" points="843,-468 645,-468 645,-432 843,-432 843,-468"/>
<text text-anchor="middle" x="744" y="-446.3" font-family="Times,serif" font-size="14.00">Mathlib.Topology.Algebra</text>
</g>
<!-- Mathlib_Topology&#45;&gt;Mathlib_Topology_Algebra -->
<g id="edge24" class="edge">
<title>Mathlib_Topology&#45;&gt;Mathlib_Topology_Algebra</title>
<path fill="none" stroke="black" d="M1081.86,-508.97C1019.08,-498.2 926.02,-482.23 853.46,-469.78"/>
<polygon fill="black" stroke="black" points="853.81,-466.29 843.36,-468.05 852.62,-473.19 853.81,-466.29"/>
</g>
<!-- Mathlib_Topology_Basic&#45;&gt;Defs -->
<g id="edge41" class="edge">
<title>Mathlib_Topology_Basic&#45;&gt;Defs</title>
<path fill="none" stroke="black" d="M1010.59,-431.88C1030.08,-423.71 1050.5,-412.1 1065,-396 1097.97,-359.39 1122.62,-324.92 1090,-288 1048.85,-241.43 878.86,-264.16 800.53,-251.52"/>
<polygon fill="black" stroke="black" points="801.04,-248.06 790.56,-249.6 799.71,-254.93 801.04,-248.06"/>
</g>
<!-- Mathlib_Topology_MetricSpace_Basic -->
<g id="node32" class="node">
<title>Mathlib_Topology_MetricSpace_Basic</title>
<polygon fill="none" stroke="black" points="1083.5,-252 808.5,-252 808.5,-216 1083.5,-216 1083.5,-252"/>
<text text-anchor="middle" x="946" y="-230.3" font-family="Times,serif" font-size="14.00">Mathlib.Topology.MetricSpace.Basic</text>
</g>
<!-- Mathlib_Topology_MetricSpace&#45;&gt;Mathlib_Topology_MetricSpace_Basic -->
<g id="edge26" class="edge">
<title>Mathlib_Topology_MetricSpace&#45;&gt;Mathlib_Topology_MetricSpace_Basic</title>
<path fill="none" stroke="black" d="M1322.11,-432C1296.5,-423.06 1266.29,-410.86 1241,-396 1176.23,-357.95 1176.85,-324.14 1111,-288 1085.75,-274.14 1056.31,-263.23 1029.34,-255.01"/>
<polygon fill="black" stroke="black" points="1030.11,-251.59 1019.53,-252.1 1028.12,-258.3 1030.11,-251.59"/>
</g>
<!-- Mathlib_Topology_MetricSpace_Basic&#45;&gt;Signal -->
<g id="edge47" class="edge">
<title>Mathlib_Topology_MetricSpace_Basic&#45;&gt;Signal</title>
<path fill="none" stroke="black" d="M928.7,-215.7C920.14,-207.14 909.66,-196.66 900.3,-187.3"/>
<polygon fill="black" stroke="black" points="902.65,-184.7 893.1,-180.1 897.7,-189.65 902.65,-184.7"/>
</g>
<!-- Mathlib_Topology_Algebra_InfiniteSum -->
<g id="node34" class="node">
<title>Mathlib_Topology_Algebra_InfiniteSum</title>
<polygon fill="none" stroke="black" points="1056,-396 776,-396 776,-360 1056,-360 1056,-396"/>
<text text-anchor="middle" x="916" y="-374.3" font-family="Times,serif" font-size="14.00">Mathlib.Topology.Algebra.InfinieSum</text>
</g>
<!-- Mathlib_Topology_Algebra&#45;&gt;Mathlib_Topology_Algebra_InfiniteSum -->
<g id="edge27" class="edge">
<title>Mathlib_Topology_Algebra&#45;&gt;Mathlib_Topology_Algebra_InfiniteSum</title>
<path fill="none" stroke="black" d="M786.08,-431.88C809.8,-422.22 839.62,-410.09 864.7,-399.88"/>
<polygon fill="black" stroke="black" points="866.12,-403.08 874.06,-396.07 863.48,-396.6 866.12,-403.08"/>
</g>
<!-- Mathlib_Topology_Algebra_InfiniteSum_Basic -->
<g id="node35" class="node">
<title>Mathlib_Topology_Algebra_InfiniteSum_Basic</title>
<polygon fill="none" stroke="black" points="1080.5,-324 751.5,-324 751.5,-288 1080.5,-288 1080.5,-324"/>
<text text-anchor="middle" x="916" y="-302.3" font-family="Times,serif" font-size="14.00">Mathlib.Topology.Algebra.InfiniteSum.Basic</text>
</g>
<!-- Mathlib_Topology_Algebra_InfiniteSum&#45;&gt;Mathlib_Topology_Algebra_InfiniteSum_Basic -->
<g id="edge28" class="edge">
<title>Mathlib_Topology_Algebra_InfiniteSum&#45;&gt;Mathlib_Topology_Algebra_InfiniteSum_Basic</title>
<path fill="none" stroke="black" d="M916,-359.7C916,-351.98 916,-342.71 916,-334.11"/>
<polygon fill="black" stroke="black" points="919.5,-334.1 916,-324.1 912.5,-334.1 919.5,-334.1"/>
</g>
<!-- Mathlib_Topology_Algebra_InfiniteSum_Defs -->
<g id="node36" class="node">
<title>Mathlib_Topology_Algebra_InfiniteSum_Defs</title>
<polygon fill="none" stroke="black" points="1314.5,-180 991.5,-180 991.5,-144 1314.5,-144 1314.5,-180"/>
<text text-anchor="middle" x="1153" y="-158.3" font-family="Times,serif" font-size="14.00">Mathlib.Topology.Algebra.InfiniteSum.Defs</text>
</g>
<!-- Mathlib_Topology_Algebra_InfiniteSum&#45;&gt;Mathlib_Topology_Algebra_InfiniteSum_Defs -->
<g id="edge29" class="edge">
<title>Mathlib_Topology_Algebra_InfiniteSum&#45;&gt;Mathlib_Topology_Algebra_InfiniteSum_Defs</title>
<path fill="none" stroke="black" d="M996.32,-359.92C1085.82,-341.14 1234.93,-310.65 1364,-288 1416.25,-278.83 1565.43,-292.24 1600,-252 1610.43,-239.86 1610.63,-227.96 1600,-216 1590.54,-205.35 1446.91,-189.65 1324.98,-178.09"/>
<polygon fill="black" stroke="black" points="1325.04,-174.58 1314.75,-177.13 1324.38,-181.55 1325.04,-174.58"/>
</g>
<!-- Mathlib_Topology_Algebra_InfiniteSum_Basic&#45;&gt;Defs -->
<g id="edge42" class="edge">
<title>Mathlib_Topology_Algebra_InfiniteSum_Basic&#45;&gt;Defs</title>
<path fill="none" stroke="black" d="M875.15,-287.88C852.22,-278.26 823.42,-266.19 799.13,-256.01"/>
<polygon fill="black" stroke="black" points="800.3,-252.71 789.72,-252.07 797.59,-259.16 800.3,-252.71"/>
</g>
<!-- Mathlib_Topology_Algebra_InfiniteSum_Defs&#45;&gt;ZTransformProperties -->
<g id="edge59" class="edge">
<title>Mathlib_Topology_Algebra_InfiniteSum_Defs&#45;&gt;ZTransformProperties</title>
<path fill="none" stroke="black" d="M1060.04,-143.97C1003.78,-133.66 931.94,-120.49 873.96,-109.87"/>
<polygon fill="black" stroke="black" points="874.51,-106.41 864.04,-108.05 873.25,-113.3 874.51,-106.41"/>
</g>
<!-- Mathlib_Analysis_Complex -->
<g id="node38" class="node">
<title>Mathlib_Analysis_Complex</title>
<polygon fill="none" stroke="black" points="2126.5,-396 1923.5,-396 1923.5,-360 2126.5,-360 2126.5,-396"/>
<text text-anchor="middle" x="2025" y="-374.3" font-family="Times,serif" font-size="14.00">Mathlib.Analysis.Complex</text>
</g>
<!-- Mathlib_Analysis&#45;&gt;Mathlib_Analysis_Complex -->
<g id="edge31" class="edge">
<title>Mathlib_Analysis&#45;&gt;Mathlib_Analysis_Complex</title>
<path fill="none" stroke="black" d="M1687.02,-433.95C1690.39,-433.27 1693.73,-432.62 1697,-432 1737.49,-424.32 1834.97,-408.7 1913.2,-396.4"/>
<polygon fill="black" stroke="black" points="1913.79,-399.85 1923.13,-394.84 1912.7,-392.94 1913.79,-399.85"/>
</g>
<!-- Mathlib_Analysis_Normed -->
<g id="node40" class="node">
<title>Mathlib_Analysis_Normed</title>
<polygon fill="none" stroke="black" points="1646,-396 1448,-396 1448,-360 1646,-360 1646,-396"/>
<text text-anchor="middle" x="1547" y="-374.3" font-family="Times,serif" font-size="14.00">Mathlib.Analysis.Normed</text>
</g>
<!-- Mathlib_Analysis&#45;&gt;Mathlib_Analysis_Normed -->
<g id="edge33" class="edge">
<title>Mathlib_Analysis&#45;&gt;Mathlib_Analysis_Normed</title>
<path fill="none" stroke="black" d="M1601.2,-431.7C1592.4,-423.14 1581.62,-412.66 1572,-403.3"/>
<polygon fill="black" stroke="black" points="1574.2,-400.57 1564.59,-396.1 1569.32,-405.58 1574.2,-400.57"/>
</g>
<!-- Mathlib_Analysis_SpecificLimits -->
<g id="node43" class="node">
<title>Mathlib_Analysis_SpecificLimits</title>
<polygon fill="none" stroke="black" points="1905.5,-396 1664.5,-396 1664.5,-360 1905.5,-360 1905.5,-396"/>
<text text-anchor="middle" x="1785" y="-374.3" font-family="Times,serif" font-size="14.00">Mathlib.Analysis.SpecificLimits</text>
</g>
<!-- Mathlib_Analysis&#45;&gt;Mathlib_Analysis_SpecificLimits -->
<g id="edge36" class="edge">
<title>Mathlib_Analysis&#45;&gt;Mathlib_Analysis_SpecificLimits</title>
<path fill="none" stroke="black" d="M1659.61,-431.88C1682.4,-422.26 1711.03,-410.19 1735.17,-400.01"/>
<polygon fill="black" stroke="black" points="1736.67,-403.18 1744.52,-396.07 1733.95,-396.73 1736.67,-403.18"/>
</g>
<!-- Mathlib_Analysis_Complex_Basic -->
<g id="node39" class="node">
<title>Mathlib_Analysis_Complex_Basic</title>
<polygon fill="none" stroke="black" points="1934.5,-180 1689.5,-180 1689.5,-144 1934.5,-144 1934.5,-180"/>
<text text-anchor="middle" x="1812" y="-158.3" font-family="Times,serif" font-size="14.00">Mathlib.Analysis.Complex.Basic</text>
</g>
<!-- Mathlib_Analysis_Complex&#45;&gt;Mathlib_Analysis_Complex_Basic -->
<g id="edge32" class="edge">
<title>Mathlib_Analysis_Complex&#45;&gt;Mathlib_Analysis_Complex_Basic</title>
<path fill="none" stroke="black" d="M2007.93,-359.85C1970.23,-321.97 1879.76,-231.08 1836.22,-187.33"/>
<polygon fill="black" stroke="black" points="1838.69,-184.85 1829.15,-180.23 1833.73,-189.79 1838.69,-184.85"/>
</g>
<!-- Mathlib_Analysis_Complex_Basic&#45;&gt;ZTransformProperties -->
<g id="edge55" class="edge">
<title>Mathlib_Analysis_Complex_Basic&#45;&gt;ZTransformProperties</title>
<path fill="none" stroke="black" d="M1689.19,-145.92C1682.36,-145.23 1675.6,-144.59 1669,-144 1388.36,-119.06 1057.3,-102.95 886.25,-95.61"/>
<polygon fill="black" stroke="black" points="886.36,-92.11 876.22,-95.18 886.06,-99.11 886.36,-92.11"/>
</g>
<!-- Mathlib_Analysis_Normed_Group -->
<g id="node41" class="node">
<title>Mathlib_Analysis_Normed_Group</title>
<polygon fill="none" stroke="black" points="1619.5,-324 1372.5,-324 1372.5,-288 1619.5,-288 1619.5,-324"/>
<text text-anchor="middle" x="1496" y="-302.3" font-family="Times,serif" font-size="14.00">Mathlib.Analysis.Normed.Group</text>
</g>
<!-- Mathlib_Analysis_Normed&#45;&gt;Mathlib_Analysis_Normed_Group -->
<g id="edge34" class="edge">
<title>Mathlib_Analysis_Normed&#45;&gt;Mathlib_Analysis_Normed_Group</title>
<path fill="none" stroke="black" d="M1534.39,-359.7C1528.4,-351.47 1521.12,-341.48 1514.52,-332.42"/>
<polygon fill="black" stroke="black" points="1517.18,-330.13 1508.46,-324.1 1511.52,-334.25 1517.18,-330.13"/>
</g>
<!-- Mathlib_Analysis_Normed_Group_Basic -->
<g id="node42" class="node">
<title>Mathlib_Analysis_Normed_Group_Basic</title>
<polygon fill="none" stroke="black" points="1591,-252 1301,-252 1301,-216 1591,-216 1591,-252"/>
<text text-anchor="middle" x="1446" y="-230.3" font-family="Times,serif" font-size="14.00">Mathlib.Analysis.Normed.Group.Basic</text>
</g>
<!-- Mathlib_Analysis_Normed_Group&#45;&gt;Mathlib_Analysis_Normed_Group_Basic -->
<g id="edge35" class="edge">
<title>Mathlib_Analysis_Normed_Group&#45;&gt;Mathlib_Analysis_Normed_Group_Basic</title>
<path fill="none" stroke="black" d="M1483.64,-287.7C1477.77,-279.47 1470.63,-269.48 1464.16,-260.42"/>
<polygon fill="black" stroke="black" points="1466.88,-258.21 1458.22,-252.1 1461.18,-262.28 1466.88,-258.21"/>
</g>
<!-- Mathlib_Analysis_Normed_Group_Basic&#45;&gt;Signal -->
<g id="edge43" class="edge">
<title>Mathlib_Analysis_Normed_Group_Basic&#45;&gt;Signal</title>
<path fill="none" stroke="black" d="M1300.87,-216.71C1176.98,-202.75 1014.04,-184.24 983,-180 967.18,-177.84 950.08,-175.24 934.3,-172.73"/>
<polygon fill="black" stroke="black" points="934.57,-169.23 924.14,-171.11 933.46,-176.14 934.57,-169.23"/>
</g>
<!-- Mathlib_Analysis_SpecificLimits_Normed -->
<g id="node44" class="node">
<title>Mathlib_Analysis_SpecificLimits_Normed</title>
<polygon fill="none" stroke="black" points="1659.5,-180 1356.5,-180 1356.5,-144 1659.5,-144 1659.5,-180"/>
<text text-anchor="middle" x="1508" y="-158.3" font-family="Times,serif" font-size="14.00">Mathlib.Analysis.SpecificLimits.Normed</text>
</g>
<!-- Mathlib_Analysis_SpecificLimits&#45;&gt;Mathlib_Analysis_SpecificLimits_Normed -->
<g id="edge37" class="edge">
<title>Mathlib_Analysis_SpecificLimits&#45;&gt;Mathlib_Analysis_SpecificLimits_Normed</title>
<path fill="none" stroke="black" d="M1770.47,-359.91C1743,-328.37 1680.48,-260.21 1617,-216 1599.5,-203.81 1578.76,-192.96 1560.1,-184.31"/>
<polygon fill="black" stroke="black" points="1561.4,-181.05 1550.85,-180.11 1558.51,-187.43 1561.4,-181.05"/>
</g>
<!-- Mathlib_Analysis_SpecificLimits_Normed&#45;&gt;ZTransformProperties -->
<g id="edge56" class="edge">
<title>Mathlib_Analysis_SpecificLimits_Normed&#45;&gt;ZTransformProperties</title>
<path fill="none" stroke="black" d="M1356.19,-146.58C1216.69,-133.33 1012.95,-113.98 886.36,-101.96"/>
<polygon fill="black" stroke="black" points="886.53,-98.46 876.25,-101 885.87,-105.43 886.53,-98.46"/>
</g>
<!-- Mathlib_Toplogy_Filter -->
<g id="node45" class="node">
<title>Mathlib_Toplogy_Filter</title>
<polygon fill="none" stroke="black" points="1282.5,-252 1101.5,-252 1101.5,-216 1282.5,-216 1282.5,-252"/>
<text text-anchor="middle" x="1192" y="-230.3" font-family="Times,serif" font-size="14.00">Mathlib_Toplogy_Filter</text>
</g>
<!-- Mathlib_Toplogy_Filter&#45;&gt;Signal -->
<g id="edge46" class="edge">
<title>Mathlib_Toplogy_Filter&#45;&gt;Signal</title>
<path fill="none" stroke="black" d="M1115.1,-215.97C1059.27,-203.6 984.89,-187.12 934.01,-175.85"/>
<polygon fill="black" stroke="black" points="934.68,-172.41 924.16,-173.67 933.17,-179.25 934.68,-172.41"/>
</g>
</g>
</svg>
